ISO-10303-21;
HEADER;

ENDSEC;

DATA;
#10=MECHANICAL_DESIGN_GEOMETRIC_PRESENTATION_REPRESENTATION('',(#13),#453);
#11=SHAPE_REPRESENTATION_RELATIONSHIP('SRR','None',#460,#12);
#12=ADVANCED_BREP_SHAPE_REPRESENTATION('',(#14),#452);
#13=STYLED_ITEM('',(#469),#14);
#14=MANIFOLD_SOLID_BREP('Solid1',#256);
#15=FACE_BOUND('',#59,.T.);
#16=FACE_BOUND('',#60,.T.);
#17=CONICAL_SURFACE('',#284,1.3,0.785398163397448);
#18=CONICAL_SURFACE('',#291,1.3,0.785398163397448);
#19=PLANE('',#282);
#20=PLANE('',#283);
#21=PLANE('',#290);
#22=PLANE('',#297);
#23=PLANE('',#298);
#24=PLANE('',#299);
#25=PLANE('',#300);
#26=PLANE('',#301);
#27=PLANE('',#302);
#28=PLANE('',#303);
#29=FACE_OUTER_BOUND('',#44,.T.);
#30=FACE_OUTER_BOUND('',#45,.T.);
#31=FACE_OUTER_BOUND('',#46,.T.);
#32=FACE_OUTER_BOUND('',#47,.T.);
#33=FACE_OUTER_BOUND('',#48,.T.);
#34=FACE_OUTER_BOUND('',#49,.T.);
#35=FACE_OUTER_BOUND('',#50,.T.);
#36=FACE_OUTER_BOUND('',#51,.T.);
#37=FACE_OUTER_BOUND('',#52,.T.);
#38=FACE_OUTER_BOUND('',#53,.T.);
#39=FACE_OUTER_BOUND('',#54,.T.);
#40=FACE_OUTER_BOUND('',#55,.T.);
#41=FACE_OUTER_BOUND('',#56,.T.);
#42=FACE_OUTER_BOUND('',#57,.T.);
#43=FACE_OUTER_BOUND('',#58,.T.);
#44=EDGE_LOOP('',(#172,#173,#174,#175));
#45=EDGE_LOOP('',(#176,#177,#178,#179));
#46=EDGE_LOOP('',(#180,#181,#182,#183,#184,#185,#186));
#47=EDGE_LOOP('',(#187,#188,#189,#190,#191));
#48=EDGE_LOOP('',(#192,#193,#194,#195,#196));
#49=EDGE_LOOP('',(#197));
#50=EDGE_LOOP('',(#198,#199,#200,#201,#202));
#51=EDGE_LOOP('',(#203,#204,#205,#206,#207));
#52=EDGE_LOOP('',(#208));
#53=EDGE_LOOP('',(#209,#210,#211,#212));
#54=EDGE_LOOP('',(#213,#214,#215,#216));
#55=EDGE_LOOP('',(#217,#218,#219,#220));
#56=EDGE_LOOP('',(#221,#222,#223,#224,#225,#226,#227));
#57=EDGE_LOOP('',(#228,#229,#230,#231));
#58=EDGE_LOOP('',(#232,#233,#234,#235));
#59=EDGE_LOOP('',(#236));
#60=EDGE_LOOP('',(#237));
#61=LINE('',#385,#84);
#62=LINE('',#388,#85);
#63=LINE('',#391,#86);
#64=LINE('',#393,#87);
#65=LINE('',#394,#88);
#66=LINE('',#397,#89);
#67=LINE('',#399,#90);
#68=LINE('',#401,#91);
#69=LINE('',#403,#92);
#70=LINE('',#404,#93);
#71=LINE('',#411,#94);
#72=LINE('',#416,#95);
#73=LINE('',#424,#96);
#74=LINE('',#429,#97);
#75=LINE('',#433,#98);
#76=LINE('',#435,#99);
#77=LINE('',#436,#100);
#78=LINE('',#439,#101);
#79=LINE('',#440,#102);
#80=LINE('',#442,#103);
#81=LINE('',#445,#104);
#82=LINE('',#446,#105);
#83=LINE('',#448,#106);
#84=VECTOR('',#310,10.);
#85=VECTOR('',#313,10.);
#86=VECTOR('',#316,10.);
#87=VECTOR('',#317,10.);
#88=VECTOR('',#318,10.);
#89=VECTOR('',#321,10.);
#90=VECTOR('',#322,10.);
#91=VECTOR('',#323,10.);
#92=VECTOR('',#324,10.);
#93=VECTOR('',#325,10.);
#94=VECTOR('',#332,1.3);
#95=VECTOR('',#339,2.55);
#96=VECTOR('',#348,1.3);
#97=VECTOR('',#355,2.55);
#98=VECTOR('',#360,10.);
#99=VECTOR('',#361,10.);
#100=VECTOR('',#362,10.);
#101=VECTOR('',#365,10.);
#102=VECTOR('',#366,10.);
#103=VECTOR('',#369,10.);
#104=VECTOR('',#372,10.);
#105=VECTOR('',#373,10.);
#106=VECTOR('',#376,10.);
#107=CIRCLE('',#280,4.);
#108=CIRCLE('',#281,4.);
#109=CIRCLE('',#285,2.55);
#110=CIRCLE('',#286,2.55);
#111=CIRCLE('',#287,0.05);
#112=CIRCLE('',#289,2.55);
#113=CIRCLE('',#292,2.55);
#114=CIRCLE('',#293,2.55);
#115=CIRCLE('',#294,0.05);
#116=CIRCLE('',#296,2.55);
#117=VERTEX_POINT('',#381);
#118=VERTEX_POINT('',#382);
#119=VERTEX_POINT('',#384);
#120=VERTEX_POINT('',#386);
#121=VERTEX_POINT('',#390);
#122=VERTEX_POINT('',#392);
#123=VERTEX_POINT('',#396);
#124=VERTEX_POINT('',#398);
#125=VERTEX_POINT('',#400);
#126=VERTEX_POINT('',#402);
#127=VERTEX_POINT('',#406);
#128=VERTEX_POINT('',#407);
#129=VERTEX_POINT('',#410);
#130=VERTEX_POINT('',#414);
#131=VERTEX_POINT('',#419);
#132=VERTEX_POINT('',#420);
#133=VERTEX_POINT('',#423);
#134=VERTEX_POINT('',#427);
#135=VERTEX_POINT('',#432);
#136=VERTEX_POINT('',#434);
#137=VERTEX_POINT('',#438);
#138=VERTEX_POINT('',#444);
#139=EDGE_CURVE('',#117,#118,#107,.T.);
#140=EDGE_CURVE('',#118,#119,#61,.T.);
#141=EDGE_CURVE('',#119,#120,#108,.T.);
#142=EDGE_CURVE('',#120,#117,#62,.T.);
#143=EDGE_CURVE('',#118,#121,#63,.T.);
#144=EDGE_CURVE('',#122,#121,#64,.T.);
#145=EDGE_CURVE('',#119,#122,#65,.T.);
#146=EDGE_CURVE('',#117,#123,#66,.T.);
#147=EDGE_CURVE('',#123,#124,#67,.T.);
#148=EDGE_CURVE('',#125,#124,#68,.T.);
#149=EDGE_CURVE('',#126,#125,#69,.T.);
#150=EDGE_CURVE('',#121,#126,#70,.T.);
#151=EDGE_CURVE('',#127,#128,#109,.T.);
#152=EDGE_CURVE('',#128,#127,#110,.T.);
#153=EDGE_CURVE('',#127,#129,#71,.T.);
#154=EDGE_CURVE('',#129,#129,#111,.T.);
#155=EDGE_CURVE('',#130,#130,#112,.T.);
#156=EDGE_CURVE('',#130,#128,#72,.T.);
#157=EDGE_CURVE('',#131,#132,#113,.T.);
#158=EDGE_CURVE('',#132,#131,#114,.T.);
#159=EDGE_CURVE('',#131,#133,#73,.T.);
#160=EDGE_CURVE('',#133,#133,#115,.T.);
#161=EDGE_CURVE('',#134,#134,#116,.T.);
#162=EDGE_CURVE('',#134,#132,#74,.T.);
#163=EDGE_CURVE('',#126,#135,#75,.T.);
#164=EDGE_CURVE('',#136,#125,#76,.T.);
#165=EDGE_CURVE('',#135,#136,#77,.T.);
#166=EDGE_CURVE('',#137,#136,#78,.T.);
#167=EDGE_CURVE('',#124,#137,#79,.T.);
#168=EDGE_CURVE('',#135,#122,#80,.T.);
#169=EDGE_CURVE('',#138,#137,#81,.T.);
#170=EDGE_CURVE('',#138,#120,#82,.T.);
#171=EDGE_CURVE('',#123,#138,#83,.T.);
#172=ORIENTED_EDGE('',*,*,#139,.T.);
#173=ORIENTED_EDGE('',*,*,#140,.T.);
#174=ORIENTED_EDGE('',*,*,#141,.T.);
#175=ORIENTED_EDGE('',*,*,#142,.T.);
#176=ORIENTED_EDGE('',*,*,#140,.F.);
#177=ORIENTED_EDGE('',*,*,#143,.T.);
#178=ORIENTED_EDGE('',*,*,#144,.F.);
#179=ORIENTED_EDGE('',*,*,#145,.F.);
#180=ORIENTED_EDGE('',*,*,#139,.F.);
#181=ORIENTED_EDGE('',*,*,#146,.T.);
#182=ORIENTED_EDGE('',*,*,#147,.T.);
#183=ORIENTED_EDGE('',*,*,#148,.F.);
#184=ORIENTED_EDGE('',*,*,#149,.F.);
#185=ORIENTED_EDGE('',*,*,#150,.F.);
#186=ORIENTED_EDGE('',*,*,#143,.F.);
#187=ORIENTED_EDGE('',*,*,#151,.T.);
#188=ORIENTED_EDGE('',*,*,#152,.T.);
#189=ORIENTED_EDGE('',*,*,#153,.T.);
#190=ORIENTED_EDGE('',*,*,#154,.T.);
#191=ORIENTED_EDGE('',*,*,#153,.F.);
#192=ORIENTED_EDGE('',*,*,#155,.F.);
#193=ORIENTED_EDGE('',*,*,#156,.T.);
#194=ORIENTED_EDGE('',*,*,#151,.F.);
#195=ORIENTED_EDGE('',*,*,#152,.F.);
#196=ORIENTED_EDGE('',*,*,#156,.F.);
#197=ORIENTED_EDGE('',*,*,#154,.F.);
#198=ORIENTED_EDGE('',*,*,#157,.T.);
#199=ORIENTED_EDGE('',*,*,#158,.T.);
#200=ORIENTED_EDGE('',*,*,#159,.T.);
#201=ORIENTED_EDGE('',*,*,#160,.T.);
#202=ORIENTED_EDGE('',*,*,#159,.F.);
#203=ORIENTED_EDGE('',*,*,#161,.F.);
#204=ORIENTED_EDGE('',*,*,#162,.T.);
#205=ORIENTED_EDGE('',*,*,#157,.F.);
#206=ORIENTED_EDGE('',*,*,#158,.F.);
#207=ORIENTED_EDGE('',*,*,#162,.F.);
#208=ORIENTED_EDGE('',*,*,#160,.F.);
#209=ORIENTED_EDGE('',*,*,#163,.F.);
#210=ORIENTED_EDGE('',*,*,#149,.T.);
#211=ORIENTED_EDGE('',*,*,#164,.F.);
#212=ORIENTED_EDGE('',*,*,#165,.F.);
#213=ORIENTED_EDGE('',*,*,#166,.T.);
#214=ORIENTED_EDGE('',*,*,#164,.T.);
#215=ORIENTED_EDGE('',*,*,#148,.T.);
#216=ORIENTED_EDGE('',*,*,#167,.T.);
#217=ORIENTED_EDGE('',*,*,#163,.T.);
#218=ORIENTED_EDGE('',*,*,#168,.T.);
#219=ORIENTED_EDGE('',*,*,#144,.T.);
#220=ORIENTED_EDGE('',*,*,#150,.T.);
#221=ORIENTED_EDGE('',*,*,#141,.F.);
#222=ORIENTED_EDGE('',*,*,#145,.T.);
#223=ORIENTED_EDGE('',*,*,#168,.F.);
#224=ORIENTED_EDGE('',*,*,#165,.T.);
#225=ORIENTED_EDGE('',*,*,#166,.F.);
#226=ORIENTED_EDGE('',*,*,#169,.F.);
#227=ORIENTED_EDGE('',*,*,#170,.T.);
#228=ORIENTED_EDGE('',*,*,#171,.T.);
#229=ORIENTED_EDGE('',*,*,#169,.T.);
#230=ORIENTED_EDGE('',*,*,#167,.F.);
#231=ORIENTED_EDGE('',*,*,#147,.F.);
#232=ORIENTED_EDGE('',*,*,#142,.F.);
#233=ORIENTED_EDGE('',*,*,#170,.F.);
#234=ORIENTED_EDGE('',*,*,#171,.F.);
#235=ORIENTED_EDGE('',*,*,#146,.F.);
#236=ORIENTED_EDGE('',*,*,#155,.T.);
#237=ORIENTED_EDGE('',*,*,#161,.T.);
#238=CYLINDRICAL_SURFACE('',#279,4.);
#239=CYLINDRICAL_SURFACE('',#288,2.55);
#240=CYLINDRICAL_SURFACE('',#295,2.55);
#241=ADVANCED_FACE('',(#29),#238,.T.);
#242=ADVANCED_FACE('',(#30),#19,.T.);
#243=ADVANCED_FACE('',(#31),#20,.T.);
#244=ADVANCED_FACE('',(#32),#17,.F.);
#245=ADVANCED_FACE('',(#33),#239,.F.);
#246=ADVANCED_FACE('',(#34),#21,.T.);
#247=ADVANCED_FACE('',(#35),#18,.F.);
#248=ADVANCED_FACE('',(#36),#240,.F.);
#249=ADVANCED_FACE('',(#37),#22,.T.);
#250=ADVANCED_FACE('',(#38),#23,.T.);
#251=ADVANCED_FACE('',(#39),#24,.T.);
#252=ADVANCED_FACE('',(#40),#25,.T.);
#253=ADVANCED_FACE('',(#41),#26,.T.);
#254=ADVANCED_FACE('',(#42),#27,.T.);
#255=ADVANCED_FACE('',(#43,#15,#16),#28,.F.);
#256=CLOSED_SHELL('',(#241,#242,#243,#244,#245,#246,#247,#248,#249,#250,
#251,#252,#253,#254,#255));
#257=DERIVED_UNIT_ELEMENT(#260,1.);
#258=DERIVED_UNIT_ELEMENT(#455,-3.);
#259=DIMENSIONAL_EXPONENTS(0.,1.,0.,0.,0.,0.,0.);
#260=(
CONVERSION_BASED_UNIT('gram',#262)
MASS_UNIT()
NAMED_UNIT(#259)
);
#261=(
MASS_UNIT()
NAMED_UNIT(*)
SI_UNIT(.KILO.,.GRAM.)
);
#262=MASS_MEASURE_WITH_UNIT(MASS_MEASURE(0.001),#261);
#263=DERIVED_UNIT((#257,#258));
#264=MEASURE_REPRESENTATION_ITEM('density measure',
POSITIVE_RATIO_MEASURE(1.),#263);
#265=PROPERTY_DEFINITION_REPRESENTATION(#270,#267);
#266=PROPERTY_DEFINITION_REPRESENTATION(#271,#268);
#267=REPRESENTATION('material name',(#269),#452);
#268=REPRESENTATION('density',(#264),#452);
#269=DESCRIPTIVE_REPRESENTATION_ITEM('Generic','Generic');
#270=PROPERTY_DEFINITION('material property','material name',#462);
#271=PROPERTY_DEFINITION('material property','density of part',#462);
#272=DATE_TIME_ROLE('creation_date');
#273=APPLIED_DATE_AND_TIME_ASSIGNMENT(#274,#272,(#462));
#274=DATE_AND_TIME(#275,#276);
#275=CALENDAR_DATE(2026,20,7);
#276=LOCAL_TIME(0,0,0.,#277);
#277=COORDINATED_UNIVERSAL_TIME_OFFSET(0,0,.BEHIND.);
#278=AXIS2_PLACEMENT_3D('',#379,#304,#305);
#279=AXIS2_PLACEMENT_3D('',#380,#306,#307);
#280=AXIS2_PLACEMENT_3D('',#383,#308,#309);
#281=AXIS2_PLACEMENT_3D('',#387,#311,#312);
#282=AXIS2_PLACEMENT_3D('',#389,#314,#315);
#283=AXIS2_PLACEMENT_3D('',#395,#319,#320);
#284=AXIS2_PLACEMENT_3D('',#405,#326,#327);
#285=AXIS2_PLACEMENT_3D('',#408,#328,#329);
#286=AXIS2_PLACEMENT_3D('',#409,#330,#331);
#287=AXIS2_PLACEMENT_3D('',#412,#333,#334);
#288=AXIS2_PLACEMENT_3D('',#413,#335,#336);
#289=AXIS2_PLACEMENT_3D('',#415,#337,#338);
#290=AXIS2_PLACEMENT_3D('',#417,#340,#341);
#291=AXIS2_PLACEMENT_3D('',#418,#342,#343);
#292=AXIS2_PLACEMENT_3D('',#421,#344,#345);
#293=AXIS2_PLACEMENT_3D('',#422,#346,#347);
#294=AXIS2_PLACEMENT_3D('',#425,#349,#350);
#295=AXIS2_PLACEMENT_3D('',#426,#351,#352);
#296=AXIS2_PLACEMENT_3D('',#428,#353,#354);
#297=AXIS2_PLACEMENT_3D('',#430,#356,#357);
#298=AXIS2_PLACEMENT_3D('',#431,#358,#359);
#299=AXIS2_PLACEMENT_3D('',#437,#363,#364);
#300=AXIS2_PLACEMENT_3D('',#441,#367,#368);
#301=AXIS2_PLACEMENT_3D('',#443,#370,#371);
#302=AXIS2_PLACEMENT_3D('',#447,#374,#375);
#303=AXIS2_PLACEMENT_3D('',#449,#377,#378);
#304=DIRECTION('axis',(0.,0.,1.));
#305=DIRECTION('refdir',(1.,0.,0.));
#306=DIRECTION('center_axis',(0.,1.,0.));
#307=DIRECTION('ref_axis',(0.707106781186548,0.,-0.707106781186547));
#308=DIRECTION('center_axis',(-7.105427357601E-16,-1.,0.));
#309=DIRECTION('ref_axis',(0.707106781186548,0.,-0.707106781186547));
#310=DIRECTION('',(0.,-1.,0.));
#311=DIRECTION('center_axis',(-7.105427357601E-16,1.,0.));
#312=DIRECTION('ref_axis',(0.707106781186548,0.,-0.707106781186547));
#313=DIRECTION('',(0.,1.,0.));
#314=DIRECTION('center_axis',(1.,0.,0.));
#315=DIRECTION('ref_axis',(0.,1.,0.));
#316=DIRECTION('',(0.,0.,1.));
#317=DIRECTION('',(0.,1.,0.));
#318=DIRECTION('',(0.,0.,1.));
#319=DIRECTION('center_axis',(7.105427357601E-16,1.,0.));
#320=DIRECTION('ref_axis',(-1.,7.10542735760101E-16,0.));
#321=DIRECTION('',(-1.,7.10542735760101E-16,0.));
#322=DIRECTION('',(0.,0.,1.));
#323=DIRECTION('',(-1.,7.10542735760101E-16,0.));
#324=DIRECTION('',(0.,0.,1.));
#325=DIRECTION('',(-1.,7.10542735760101E-16,0.));
#326=DIRECTION('center_axis',(0.,0.,-1.));
#327=DIRECTION('ref_axis',(1.,0.,0.));
#328=DIRECTION('center_axis',(0.,0.,-1.));
#329=DIRECTION('ref_axis',(1.,0.,0.));
#330=DIRECTION('center_axis',(0.,0.,-1.));
#331=DIRECTION('ref_axis',(1.,0.,0.));
#332=DIRECTION('',(0.707106781186547,-8.65956056235493E-17,0.707106781186547));
#333=DIRECTION('center_axis',(0.,0.,1.));
#334=DIRECTION('ref_axis',(1.,0.,0.));
#335=DIRECTION('center_axis',(0.,0.,1.));
#336=DIRECTION('ref_axis',(-1.,0.,0.));
#337=DIRECTION('center_axis',(0.,0.,1.));
#338=DIRECTION('ref_axis',(-1.,0.,0.));
#339=DIRECTION('',(0.,0.,1.));
#340=DIRECTION('center_axis',(0.,0.,-1.));
#341=DIRECTION('ref_axis',(-1.,0.,0.));
#342=DIRECTION('center_axis',(0.,0.,-1.));
#343=DIRECTION('ref_axis',(1.,0.,0.));
#344=DIRECTION('center_axis',(0.,0.,-1.));
#345=DIRECTION('ref_axis',(1.,0.,0.));
#346=DIRECTION('center_axis',(0.,0.,-1.));
#347=DIRECTION('ref_axis',(1.,0.,0.));
#348=DIRECTION('',(0.707106781186547,-8.65956056235493E-17,0.707106781186547));
#349=DIRECTION('center_axis',(0.,0.,1.));
#350=DIRECTION('ref_axis',(1.,0.,0.));
#351=DIRECTION('center_axis',(0.,0.,1.));
#352=DIRECTION('ref_axis',(-1.,0.,0.));
#353=DIRECTION('center_axis',(0.,0.,1.));
#354=DIRECTION('ref_axis',(-1.,0.,0.));
#355=DIRECTION('',(0.,0.,1.));
#356=DIRECTION('center_axis',(0.,0.,-1.));
#357=DIRECTION('ref_axis',(-1.,0.,0.));
#358=DIRECTION('center_axis',(1.,0.,0.));
#359=DIRECTION('ref_axis',(0.,1.,0.));
#360=DIRECTION('',(0.,-1.,0.));
#361=DIRECTION('',(0.,1.,0.));
#362=DIRECTION('',(0.,0.,1.));
#363=DIRECTION('center_axis',(0.,0.,1.));
#364=DIRECTION('ref_axis',(1.,0.,0.));
#365=DIRECTION('',(1.,7.10542735760101E-16,0.));
#366=DIRECTION('',(0.,-1.,0.));
#367=DIRECTION('center_axis',(0.,0.,1.));
#368=DIRECTION('ref_axis',(1.,0.,0.));
#369=DIRECTION('',(1.,7.10542735760101E-16,0.));
#370=DIRECTION('center_axis',(7.105427357601E-16,-1.,0.));
#371=DIRECTION('ref_axis',(1.,7.10542735760101E-16,0.));
#372=DIRECTION('',(0.,0.,1.));
#373=DIRECTION('',(1.,7.10542735760101E-16,0.));
#374=DIRECTION('center_axis',(-1.,0.,0.));
#375=DIRECTION('ref_axis',(0.,-1.,0.));
#376=DIRECTION('',(0.,-1.,0.));
#377=DIRECTION('center_axis',(0.,0.,1.));
#378=DIRECTION('ref_axis',(1.,0.,0.));
#379=CARTESIAN_POINT('',(0.,0.,0.));
#380=CARTESIAN_POINT('Origin',(8.5,-5.25,4.));
#381=CARTESIAN_POINT('',(8.5,10.5,1.38777878078145E-16));
#382=CARTESIAN_POINT('',(12.5,10.5,4.));
#383=CARTESIAN_POINT('Origin',(8.5,10.5,4.));
#384=CARTESIAN_POINT('',(12.5,-10.5,4.));
#385=CARTESIAN_POINT('',(12.5,-5.25,4.));
#386=CARTESIAN_POINT('',(8.5,-10.5,1.38777878078145E-16));
#387=CARTESIAN_POINT('Origin',(8.5,-10.5,4.));
#388=CARTESIAN_POINT('',(8.5,-5.25,1.38777878078145E-16));
#389=CARTESIAN_POINT('Origin',(12.5,-10.5,1.38777878078145E-16));
#390=CARTESIAN_POINT('',(12.5,10.5,17.2));
#391=CARTESIAN_POINT('',(12.5,10.5,1.38777878078145E-16));
#392=CARTESIAN_POINT('',(12.5,-10.5,17.2));
#393=CARTESIAN_POINT('',(12.5,-10.5,17.2));
#394=CARTESIAN_POINT('',(12.5,-10.5,1.38777878078145E-16));
#395=CARTESIAN_POINT('Origin',(12.5,10.5,1.38777878078145E-16));
#396=CARTESIAN_POINT('',(-12.5,10.5,1.38777878078145E-16));
#397=CARTESIAN_POINT('',(12.5,10.5,1.38777878078145E-16));
#398=CARTESIAN_POINT('',(-12.5,10.5,20.2));
#399=CARTESIAN_POINT('',(-12.5,10.5,1.38777878078145E-16));
#400=CARTESIAN_POINT('',(-8.49999999999999,10.5,20.2));
#401=CARTESIAN_POINT('',(12.5,10.5,20.2));
#402=CARTESIAN_POINT('',(-8.49999999999999,10.5,17.2));
#403=CARTESIAN_POINT('',(-8.49999999999999,10.5,17.2));
#404=CARTESIAN_POINT('',(12.5,10.5,17.2));
#405=CARTESIAN_POINT('Origin',(3.,0.,7.95));
#406=CARTESIAN_POINT('',(0.449999999999999,0.,6.7));
#407=CARTESIAN_POINT('',(5.55,3.12284933782575E-16,6.7));
#408=CARTESIAN_POINT('Origin',(3.,0.,6.7));
#409=CARTESIAN_POINT('Origin',(3.,0.,6.7));
#410=CARTESIAN_POINT('',(2.95,0.,9.2));
#411=CARTESIAN_POINT('',(1.7,1.59204083889156E-16,7.95));
#412=CARTESIAN_POINT('Origin',(3.,0.,9.2));
#413=CARTESIAN_POINT('Origin',(3.,0.,1.38777878078145E-16));
#414=CARTESIAN_POINT('',(5.55,3.12284933782575E-16,1.38777878078145E-16));
#415=CARTESIAN_POINT('Origin',(3.,0.,1.38777878078145E-16));
#416=CARTESIAN_POINT('',(5.55,3.12284933782575E-16,1.38777878078145E-16));
#417=CARTESIAN_POINT('Origin',(3.,0.,9.2));
#418=CARTESIAN_POINT('Origin',(-7.,0.,7.95));
#419=CARTESIAN_POINT('',(-9.55,0.,6.7));
#420=CARTESIAN_POINT('',(-4.45,3.12284933782575E-16,6.7));
#421=CARTESIAN_POINT('Origin',(-7.,0.,6.7));
#422=CARTESIAN_POINT('Origin',(-7.,0.,6.7));
#423=CARTESIAN_POINT('',(-7.05,0.,9.2));
#424=CARTESIAN_POINT('',(-8.3,1.59204083889156E-16,7.95));
#425=CARTESIAN_POINT('Origin',(-7.,0.,9.2));
#426=CARTESIAN_POINT('Origin',(-7.,0.,1.38777878078145E-16));
#427=CARTESIAN_POINT('',(-4.45,3.12284933782575E-16,1.38777878078145E-16));
#428=CARTESIAN_POINT('Origin',(-7.,0.,1.38777878078145E-16));
#429=CARTESIAN_POINT('',(-4.45,3.12284933782575E-16,1.38777878078145E-16));
#430=CARTESIAN_POINT('Origin',(-7.,0.,9.2));
#431=CARTESIAN_POINT('Origin',(-8.49999999999999,-10.5,17.2));
#432=CARTESIAN_POINT('',(-8.49999999999999,-10.5,17.2));
#433=CARTESIAN_POINT('',(-8.49999999999998,-5.25000000000002,17.2));
#434=CARTESIAN_POINT('',(-8.49999999999999,-10.5,20.2));
#435=CARTESIAN_POINT('',(-8.49999999999999,-10.5,20.2));
#436=CARTESIAN_POINT('',(-8.49999999999999,-10.5,17.2));
#437=CARTESIAN_POINT('Origin',(-10.5,0.,20.2));
#438=CARTESIAN_POINT('',(-12.5,-10.5,20.2));
#439=CARTESIAN_POINT('',(-12.5,-10.5,20.2));
#440=CARTESIAN_POINT('',(-12.5,10.5,20.2));
#441=CARTESIAN_POINT('Origin',(0.,0.,17.2));
#442=CARTESIAN_POINT('',(-12.5,-10.5,17.2));
#443=CARTESIAN_POINT('Origin',(-12.5,-10.5,1.38777878078145E-16));
#444=CARTESIAN_POINT('',(-12.5,-10.5,1.38777878078145E-16));
#445=CARTESIAN_POINT('',(-12.5,-10.5,1.38777878078145E-16));
#446=CARTESIAN_POINT('',(-12.5,-10.5,1.38777878078145E-16));
#447=CARTESIAN_POINT('Origin',(-12.5,10.5,1.38777878078145E-16));
#448=CARTESIAN_POINT('',(-12.5,10.5,1.38777878078145E-16));
#449=CARTESIAN_POINT('Origin',(0.,0.,1.38777878078145E-16));
#450=UNCERTAINTY_MEASURE_WITH_UNIT(LENGTH_MEASURE(0.01),#454,
'DISTANCE_ACCURACY_VALUE',
'Maximum model space distance between geometric entities at asserted c
onnectivities');
#451=UNCERTAINTY_MEASURE_WITH_UNIT(LENGTH_MEASURE(0.01),#454,
'DISTANCE_ACCURACY_VALUE',
'Maximum model space distance between geometric entities at asserted c
onnectivities');
#452=(
GEOMETRIC_REPRESENTATION_CONTEXT(3)
GLOBAL_UNCERTAINTY_ASSIGNED_CONTEXT((#450))
GLOBAL_UNIT_ASSIGNED_CONTEXT((#454,#456,#457))
REPRESENTATION_CONTEXT('','3D')
);
#453=(
GEOMETRIC_REPRESENTATION_CONTEXT(3)
GLOBAL_UNCERTAINTY_ASSIGNED_CONTEXT((#451))
GLOBAL_UNIT_ASSIGNED_CONTEXT((#454,#456,#457))
REPRESENTATION_CONTEXT('','3D')
);
#454=(
LENGTH_UNIT()
NAMED_UNIT(*)
SI_UNIT(.MILLI.,.METRE.)
);
#455=(
LENGTH_UNIT()
NAMED_UNIT(*)
SI_UNIT(.CENTI.,.METRE.)
);
#456=(
NAMED_UNIT(*)
PLANE_ANGLE_UNIT()
SI_UNIT($,.RADIAN.)
);
#457=(
NAMED_UNIT(*)
SI_UNIT($,.STERADIAN.)
SOLID_ANGLE_UNIT()
);
#458=SHAPE_DEFINITION_REPRESENTATION(#459,#460);
#459=PRODUCT_DEFINITION_SHAPE('',$,#462);
#460=SHAPE_REPRESENTATION('',(#278),#452);
#461=PRODUCT_DEFINITION_CONTEXT('part definition',#466,'design');
#462=PRODUCT_DEFINITION('microSD Holder_3DPrint',
'microSD Holder_3DPrint',#463,#461);
#463=PRODUCT_DEFINITION_FORMATION('',$,#468);
#464=PRODUCT_RELATED_PRODUCT_CATEGORY('microSD Holder_3DPrint',
'microSD Holder_3DPrint',(#468));
#465=APPLICATION_PROTOCOL_DEFINITION('international standard',
'automotive_design',2009,#466);
#466=APPLICATION_CONTEXT(
'Core Data for Automotive Mechanical Design Process');
#467=PRODUCT_CONTEXT('part definition',#466,'mechanical');
#468=PRODUCT('microSD Holder_3DPrint','microSD Holder_3DPrint',$,(#467));
#469=PRESENTATION_STYLE_ASSIGNMENT((#470));
#470=SURFACE_STYLE_USAGE(.BOTH.,#473);
#471=SURFACE_STYLE_RENDERING_WITH_PROPERTIES($,#477,(#472));
#472=SURFACE_STYLE_TRANSPARENT(0.);
#473=SURFACE_SIDE_STYLE('',(#474,#471));
#474=SURFACE_STYLE_FILL_AREA(#475);
#475=FILL_AREA_STYLE('',(#476));
#476=FILL_AREA_STYLE_COLOUR('',#477);
#477=COLOUR_RGB('',0.749019607843137,0.749019607843137,0.749019607843137);
ENDSEC;
END-ISO-10303-21;
